<mxfile host="app.diagrams.net" modified="2023-11-07T09:31:49.745Z" agent="Mozilla/5.0 (Windows NT 10.0; Win64; x64) AppleWebKit/537.36 (KHTML, like Gecko) Chrome/118.0.0.0 Safari/537.36" etag="RgSqzkBPpGGGnRZuT536" version="22.0.8" type="device">
  <diagram name="頁-1" id="Page-1">
    <mxGraphModel dx="1115" dy="610" grid="0" gridSize="10" guides="1" tooltips="1" connect="1" arrows="1" fold="1" page="1" pageScale="1" pageWidth="827" pageHeight="1169" math="0" shadow="0">
      <root>
        <mxCell id="0" />
        <mxCell id="1" parent="0" />
        <mxCell id="19" value="&lt;div style=&quot;font-size: 1px&quot;&gt;&lt;font style=&quot;font-size:22.58px;font-family:Microsoft JhengHei;color:#000000;direction:ltr;letter-spacing:0px;line-height:120%;opacity:1&quot;&gt;Previous layer&lt;br&gt;&lt;/font&gt;&lt;/div&gt;" style="verticalAlign=middle;align=center;overflow=width;vsdxID=97;fillColor=#dae2f3;gradientColor=none;shape=label;strokeColor=default;shadow=1;labelBackgroundColor=none;rounded=1;html=1;whiteSpace=wrap;strokeWidth=1.5;" parent="1" vertex="1">
          <mxGeometry x="262" y="456" width="165" height="39" as="geometry" />
        </mxCell>
        <mxCell id="20" value="&lt;div style=&quot;font-size: 1px&quot;&gt;&lt;font style=&quot;font-size:22.58px;font-family:Microsoft JhengHei;color:#000000;direction:ltr;letter-spacing:0px;line-height:120%;opacity:1&quot;&gt;Conv&lt;br/&gt;1x1/1(S)&lt;br/&gt;&lt;/font&gt;&lt;/div&gt;" style="verticalAlign=middle;align=center;overflow=width;vsdxID=98;fillColor=#ffd966;gradientColor=none;shape=label;strokeColor=default;shadow=1;labelBackgroundColor=none;rounded=1;html=1;whiteSpace=wrap;strokeWidth=1.5;" parent="1" vertex="1">
          <mxGeometry x="123.5" y="249" width="105" height="66" as="geometry" />
        </mxCell>
        <mxCell id="21" value="&lt;div style=&quot;font-size: 1px&quot;&gt;&lt;font style=&quot;font-size:22.58px;font-family:Microsoft JhengHei;color:#000000;direction:ltr;letter-spacing:0px;line-height:120%;opacity:1&quot;&gt;Conv&lt;br/&gt;1x1/1(S)&lt;br/&gt;&lt;/font&gt;&lt;/div&gt;" style="verticalAlign=middle;align=center;overflow=width;vsdxID=99;fillColor=#ffd966;gradientColor=none;shape=label;strokeColor=default;shadow=1;labelBackgroundColor=none;rounded=1;html=1;whiteSpace=wrap;strokeWidth=1.5;" parent="1" vertex="1">
          <mxGeometry x="292" y="346" width="105" height="66" as="geometry" />
        </mxCell>
        <mxCell id="22" value="&lt;div style=&quot;font-size: 1px&quot;&gt;&lt;font style=&quot;font-size:22.58px;font-family:Microsoft JhengHei;color:#000000;direction:ltr;letter-spacing:0px;line-height:120%;opacity:1&quot;&gt;Conv&lt;br/&gt;1x1/1(S)&lt;br/&gt;&lt;/font&gt;&lt;/div&gt;" style="verticalAlign=middle;align=center;overflow=width;vsdxID=100;fillColor=#ffd966;gradientColor=none;shape=label;strokeColor=default;shadow=1;labelBackgroundColor=none;rounded=1;html=1;whiteSpace=wrap;strokeWidth=1.5;" parent="1" vertex="1">
          <mxGeometry x="427" y="346" width="105" height="66" as="geometry" />
        </mxCell>
        <mxCell id="23" value="&lt;div style=&quot;font-size: 1px&quot;&gt;&lt;font style=&quot;font-size:22.58px;font-family:Microsoft JhengHei;color:#000000;direction:ltr;letter-spacing:0px;line-height:120%;opacity:1&quot;&gt;MaxPool&lt;br/&gt;3x3/1(S)&lt;br/&gt;&lt;/font&gt;&lt;/div&gt;" style="verticalAlign=middle;align=center;overflow=width;vsdxID=101;fillColor=#f4b183;gradientColor=none;shape=label;strokeColor=default;shadow=1;labelBackgroundColor=none;rounded=1;html=1;whiteSpace=wrap;strokeWidth=1.5;" parent="1" vertex="1">
          <mxGeometry x="564.5" y="346" width="110" height="66" as="geometry" />
        </mxCell>
        <mxCell id="24" value="&lt;div style=&quot;font-size: 1px&quot;&gt;&lt;font style=&quot;font-size:22.58px;font-family:Microsoft JhengHei;color:#000000;direction:ltr;letter-spacing:0px;line-height:120%;opacity:1&quot;&gt;Conv&lt;br/&gt;3x3/1(S)&lt;br/&gt;&lt;/font&gt;&lt;/div&gt;" style="verticalAlign=middle;align=center;overflow=width;vsdxID=102;fillColor=#9dc3e6;gradientColor=none;shape=label;strokeColor=default;shadow=1;labelBackgroundColor=none;rounded=1;html=1;whiteSpace=wrap;strokeWidth=1.5;" parent="1" vertex="1">
          <mxGeometry x="292" y="249" width="105" height="66" as="geometry" />
        </mxCell>
        <mxCell id="25" value="&lt;div style=&quot;font-size: 1px&quot;&gt;&lt;font style=&quot;font-size:22.58px;font-family:Microsoft JhengHei;color:#000000;direction:ltr;letter-spacing:0px;line-height:120%;opacity:1&quot;&gt;Conv&lt;br/&gt;5x5/1(S)&lt;br/&gt;&lt;/font&gt;&lt;/div&gt;" style="verticalAlign=middle;align=center;overflow=width;vsdxID=103;fillColor=#a9d18e;gradientColor=none;shape=label;strokeColor=default;shadow=1;labelBackgroundColor=none;rounded=1;html=1;whiteSpace=wrap;strokeWidth=1.5;" parent="1" vertex="1">
          <mxGeometry x="427" y="249" width="105" height="66" as="geometry" />
        </mxCell>
        <mxCell id="26" value="&lt;div style=&quot;font-size: 1px&quot;&gt;&lt;font style=&quot;font-size:22.58px;font-family:Microsoft JhengHei;color:#000000;direction:ltr;letter-spacing:0px;line-height:120%;opacity:1&quot;&gt;Conv&lt;br/&gt;1x1/1(S)&lt;br/&gt;&lt;/font&gt;&lt;/div&gt;" style="verticalAlign=middle;align=center;overflow=width;vsdxID=104;fillColor=#ffd966;gradientColor=none;shape=label;strokeColor=default;shadow=1;labelBackgroundColor=none;rounded=1;html=1;whiteSpace=wrap;strokeWidth=1.5;" parent="1" vertex="1">
          <mxGeometry x="567" y="249" width="105" height="66" as="geometry" />
        </mxCell>
        <mxCell id="27" value="&lt;div style=&quot;font-size: 1px&quot;&gt;&lt;p style=&quot;text-align:center;margin-left:0;margin-right:0;margin-top:0px;margin-bottom:0px;text-indent:0;vertical-align:middle;direction:ltr;&quot;&gt;&lt;font style=&quot;font-size:22.58px;font-family:Microsoft JhengHei;color:#000000;direction:ltr;letter-spacing:0px;line-height:120%;opacity:1&quot;&gt;Filter Concatenation&lt;/font&gt;&lt;font style=&quot;font-size:22.58px;font-family:Microsoft JhengHei;color:#000000;direction:ltr;letter-spacing:0px;line-height:120%;opacity:1&quot;&gt;&lt;br&gt;&lt;/font&gt;&lt;/p&gt;&lt;/div&gt;" style="verticalAlign=middle;align=center;overflow=width;vsdxID=105;fillColor=#b5c6e7;gradientColor=none;shape=label;strokeColor=default;shadow=1;labelBackgroundColor=none;rounded=1;html=1;whiteSpace=wrap;strokeWidth=1.5;" parent="1" vertex="1">
          <mxGeometry x="228.5" y="165" width="232" height="39" as="geometry" />
        </mxCell>
        <mxCell id="28" value="&lt;div style=&quot;font-size: 1px&quot;&gt;&lt;font style=&quot;font-size:22.58px;font-family:Microsoft JhengHei;color:#000000;direction:ltr;letter-spacing:0px;line-height:120%;opacity:1&quot;&gt;Next layer&lt;br&gt;&lt;/font&gt;&lt;/div&gt;" style="verticalAlign=middle;align=center;overflow=width;vsdxID=130;fillColor=#fbe5d5;gradientColor=none;shape=label;strokeColor=default;shadow=1;labelBackgroundColor=none;rounded=1;html=1;whiteSpace=wrap;strokeWidth=1.5;" parent="1" vertex="1">
          <mxGeometry x="282" y="68" width="125" height="39" as="geometry" />
        </mxCell>
        <UserObject label="" tags="連接器" id="30">
          <mxCell style="vsdxID=138;edgeStyle=none;startArrow=block;endArrow=none;startSize=9;endSize=9;strokeColor=default;spacingTop=0;spacingBottom=0;spacingLeft=0;spacingRight=0;verticalAlign=middle;html=1;labelBackgroundColor=#ffffff;rounded=0;exitX=0.5067567567567568;exitY=1;exitDx=0;exitDy=0;exitPerimeter=0;entryX=0.5022421524663677;entryY=0;entryDx=0;entryDy=0;entryPerimeter=0;strokeWidth=1.5;" parent="1" source="23" target="19" edge="1">
            <mxGeometry relative="1" as="geometry">
              <mxPoint x="-1" as="offset" />
              <Array as="points" />
            </mxGeometry>
          </mxCell>
        </UserObject>
        <UserObject label="" tags="連接器" id="37">
          <mxCell style="vsdxID=106;edgeStyle=none;startArrow=none;endArrow=block;startSize=9;endSize=9;strokeColor=default;spacingTop=0;spacingBottom=0;spacingLeft=0;spacingRight=0;verticalAlign=middle;html=1;labelBackgroundColor=#ffffff;rounded=0;exitX=0.5022421524663677;exitY=0;exitDx=0;exitDy=0;exitPerimeter=0;entryX=0.5;entryY=1;entryDx=0;entryDy=0;entryPerimeter=0;strokeWidth=1.5;" parent="1" source="19" target="21" edge="1">
            <mxGeometry relative="1" as="geometry">
              <mxPoint x="-1" as="offset" />
              <Array as="points" />
            </mxGeometry>
          </mxCell>
        </UserObject>
        <UserObject label="" tags="連接器" id="38">
          <mxCell style="vsdxID=107;edgeStyle=none;startArrow=block;endArrow=none;startSize=9;endSize=9;strokeColor=default;spacingTop=0;spacingBottom=0;spacingLeft=0;spacingRight=0;verticalAlign=middle;html=1;labelBackgroundColor=#ffffff;rounded=0;exitX=0.5;exitY=1;exitDx=0;exitDy=0;exitPerimeter=0;entryX=0.5022421524663677;entryY=0;entryDx=0;entryDy=0;entryPerimeter=0;strokeWidth=1.5;" parent="1" source="22" target="19" edge="1">
            <mxGeometry relative="1" as="geometry">
              <mxPoint y="-1" as="offset" />
              <Array as="points" />
            </mxGeometry>
          </mxCell>
        </UserObject>
        <UserObject label="" tags="連接器" id="39">
          <mxCell style="vsdxID=109;edgeStyle=none;startArrow=block;endArrow=none;startSize=9;endSize=9;strokeColor=default;spacingTop=0;spacingBottom=0;spacingLeft=0;spacingRight=0;verticalAlign=middle;html=1;labelBackgroundColor=#ffffff;rounded=0;exitX=0.5;exitY=1;exitDx=0;exitDy=0;exitPerimeter=0;strokeWidth=1.5;entryX=0.5;entryY=0;entryDx=0;entryDy=0;" parent="1" source="20" target="19" edge="1">
            <mxGeometry relative="1" as="geometry">
              <mxPoint as="offset" />
              <Array as="points" />
              <mxPoint x="342" y="454" as="targetPoint" />
            </mxGeometry>
          </mxCell>
        </UserObject>
        <UserObject label="" tags="連接器" id="32">
          <mxCell style="vsdxID=116;edgeStyle=none;startArrow=none;endArrow=block;startSize=9;endSize=9;strokeColor=default;spacingTop=0;spacingBottom=0;spacingLeft=0;spacingRight=0;verticalAlign=middle;html=1;labelBackgroundColor=#ffffff;rounded=0;exitX=0.5;exitY=0;exitDx=0;exitDy=0;exitPerimeter=0;entryX=0.5017667844522968;entryY=1.0135135135135136;entryDx=0;entryDy=0;entryPerimeter=0;strokeWidth=1.5;" parent="1" source="20" target="27" edge="1">
            <mxGeometry relative="1" as="geometry">
              <mxPoint y="-1" as="offset" />
              <Array as="points" />
            </mxGeometry>
          </mxCell>
        </UserObject>
        <UserObject label="" tags="連接器" id="40">
          <mxCell style="vsdxID=110;edgeStyle=none;startArrow=none;endArrow=block;startSize=9;endSize=9;strokeColor=default;spacingTop=0;spacingBottom=0;spacingLeft=0;spacingRight=0;verticalAlign=middle;html=1;labelBackgroundColor=#ffffff;rounded=0;exitX=0.5;exitY=0;exitDx=0;exitDy=0;exitPerimeter=0;entryX=0.5;entryY=1;entryDx=0;entryDy=0;entryPerimeter=0;strokeWidth=1.5;" parent="1" source="21" target="24" edge="1">
            <mxGeometry relative="1" as="geometry">
              <mxPoint x="-10" as="offset" />
              <Array as="points" />
            </mxGeometry>
          </mxCell>
        </UserObject>
        <UserObject label="" tags="連接器" id="36">
          <mxCell style="vsdxID=111;edgeStyle=none;startArrow=none;endArrow=block;startSize=9;endSize=9;strokeColor=default;spacingTop=0;spacingBottom=0;spacingLeft=0;spacingRight=0;verticalAlign=middle;html=1;labelBackgroundColor=#ffffff;rounded=0;exitX=0.5;exitY=0;exitDx=0;exitDy=0;exitPerimeter=0;entryX=0.5;entryY=1;entryDx=0;entryDy=0;entryPerimeter=0;strokeWidth=1.5;" parent="1" source="22" target="25" edge="1">
            <mxGeometry relative="1" as="geometry">
              <mxPoint x="-10" as="offset" />
              <Array as="points" />
            </mxGeometry>
          </mxCell>
        </UserObject>
        <UserObject label="" tags="連接器" id="35">
          <mxCell style="vsdxID=113;edgeStyle=none;startArrow=none;endArrow=block;startSize=9;endSize=9;strokeColor=default;spacingTop=0;spacingBottom=0;spacingLeft=0;spacingRight=0;verticalAlign=middle;html=1;labelBackgroundColor=#ffffff;rounded=0;exitX=0.5;exitY=0;exitDx=0;exitDy=0;exitPerimeter=0;entryX=0.5017667844522968;entryY=1.0135135135135136;entryDx=0;entryDy=0;entryPerimeter=0;strokeWidth=1.5;" parent="1" source="24" target="27" edge="1">
            <mxGeometry relative="1" as="geometry">
              <mxPoint as="offset" />
              <Array as="points" />
            </mxGeometry>
          </mxCell>
        </UserObject>
        <UserObject label="" tags="連接器" id="34">
          <mxCell style="vsdxID=114;edgeStyle=none;startArrow=none;endArrow=block;startSize=9;endSize=9;strokeColor=default;spacingTop=0;spacingBottom=0;spacingLeft=0;spacingRight=0;verticalAlign=middle;html=1;labelBackgroundColor=#ffffff;rounded=0;exitX=0.5;exitY=0;exitDx=0;exitDy=0;exitPerimeter=0;entryX=0.5017667844522968;entryY=1.0135135135135136;entryDx=0;entryDy=0;entryPerimeter=0;strokeWidth=1.5;" parent="1" source="25" target="27" edge="1">
            <mxGeometry relative="1" as="geometry">
              <mxPoint x="-1" y="-1" as="offset" />
              <Array as="points" />
            </mxGeometry>
          </mxCell>
        </UserObject>
        <UserObject label="" tags="連接器" id="33">
          <mxCell style="vsdxID=115;edgeStyle=none;startArrow=none;endArrow=block;startSize=9;endSize=9;strokeColor=default;spacingTop=0;spacingBottom=0;spacingLeft=0;spacingRight=0;verticalAlign=middle;html=1;labelBackgroundColor=#ffffff;rounded=0;exitX=0.5067567567567568;exitY=0;exitDx=0;exitDy=0;exitPerimeter=0;entryX=0.5017667844522968;entryY=1.0135135135135136;entryDx=0;entryDy=0;entryPerimeter=0;strokeWidth=1.5;" parent="1" source="26" target="27" edge="1">
            <mxGeometry relative="1" as="geometry">
              <mxPoint x="-1" y="-1" as="offset" />
              <Array as="points" />
            </mxGeometry>
          </mxCell>
        </UserObject>
        <UserObject label="" tags="連接器" id="31">
          <mxCell style="vsdxID=129;edgeStyle=none;startArrow=block;endArrow=none;startSize=9;endSize=9;strokeColor=default;spacingTop=0;spacingBottom=0;spacingLeft=0;spacingRight=0;verticalAlign=middle;html=1;labelBackgroundColor=#ffffff;rounded=0;exitX=0.5022421524663677;exitY=1;exitDx=0;exitDy=0;exitPerimeter=0;entryX=0.5017667844522968;entryY=0;entryDx=0;entryDy=0;entryPerimeter=0;strokeWidth=1.5;" parent="1" source="28" target="27" edge="1">
            <mxGeometry relative="1" as="geometry">
              <mxPoint x="10" as="offset" />
              <Array as="points" />
            </mxGeometry>
          </mxCell>
        </UserObject>
        <UserObject label="" tags="連接器" id="29">
          <mxCell style="vsdxID=144;edgeStyle=none;startArrow=block;endArrow=none;startSize=9;endSize=9;strokeColor=default;spacingTop=0;spacingBottom=0;spacingLeft=0;spacingRight=0;verticalAlign=middle;html=1;labelBackgroundColor=#ffffff;rounded=0;exitX=0.5067567567567568;exitY=1;exitDx=0;exitDy=0;exitPerimeter=0;entryX=0.5067567567567568;entryY=0.013513513513513514;entryDx=0;entryDy=0;entryPerimeter=0;strokeWidth=1.5;" parent="1" source="26" target="23" edge="1">
            <mxGeometry relative="1" as="geometry">
              <mxPoint x="10" y="-1" as="offset" />
              <Array as="points" />
            </mxGeometry>
          </mxCell>
        </UserObject>
      </root>
    </mxGraphModel>
  </diagram>
</mxfile>
